<!DOCTYPE svg PUBLIC "-//W3C//DTD SVG 20010904//EN" "http://www.w3.org/TR/2001/REC-SVG-20010904/DTD/svg10.dtd">
<svg version="1.0" xmlns="http://www.w3.org/2000/svg" width="45px" height="67px" viewBox="0 0 450 670" preserveAspectRatio="xMidYMid meet">
<g id="layer101" fill="#ededed" stroke="none">
 <path d="M125 651 c-22 -10 -52 -31 -67 -47 -51 -54 -58 -89 -58 -269 0 -180 7 -215 58 -269 83 -88 251 -88 334 0 51 54 58 88 58 271 0 185 -9 221 -66 275 -63 59 -179 76 -259 39z m156 -23 c53 -17 87 -46 112 -91 20 -38 22 -56 22 -202 0 -146 -2 -164 -22 -202 -41 -76 -129 -116 -210 -94 -61 16 -99 44 -126 94 -20 38 -22 56 -22 202 0 146 2 164 22 202 44 82 139 120 224 91z"/>
 <path d="M210 145 c0 -60 3 -75 15 -75 12 0 15 15 15 75 0 60 -3 75 -15 75 -12 0 -15 -15 -15 -75z"/>
 </g>

</svg>